<svg width="186" height="19" viewBox="0 0 186 19" fill="none" xmlns="http://www.w3.org/2000/svg">
<path d="M18.8261 17.8244V6.2059C18.4707 6.71143 18.1153 7.21696 17.7684 7.72248C17.4216 8.22801 17.0662 8.73353 16.7108 9.23905L12.7543 14.8684H10.1809L6.21583 9.21764C6.03599 8.96487 5.86044 8.71211 5.68916 8.46363C5.5136 8.21515 5.34232 7.96239 5.17104 7.71391C4.99976 7.46543 4.82421 7.21266 4.65293 6.96419C4.47737 6.71571 4.30181 6.46295 4.12625 6.21019V17.8287H0.572266V1.33057H4.62724L9.93681 8.91774C10.2109 9.32045 10.4892 9.71888 10.7675 10.1045C11.0458 10.49 11.3242 10.8842 11.5982 11.2869C11.8851 10.8842 12.1634 10.4857 12.4417 10.083C12.7158 9.68032 12.9984 9.27762 13.2853 8.87491L18.5649 1.33057H22.3886V17.8287H18.8346L18.8261 17.8244Z" fill="#1B1464"/>
<path d="M32.6996 17.8246V11.694L25.1377 1.32642H29.4838L32.9907 6.34313C33.1192 6.53164 33.2519 6.72013 33.3847 6.90863C33.5174 7.09713 33.6459 7.28136 33.7786 7.46986C33.9071 7.65836 34.0398 7.84258 34.1725 8.03108C34.3053 8.21958 34.438 8.40807 34.5708 8.59657C34.6992 8.40807 34.832 8.21958 34.9647 8.03108C35.0974 7.84258 35.2302 7.64979 35.3672 7.46128C35.5042 7.27278 35.6327 7.08 35.7654 6.8915C35.8982 6.703 36.0309 6.51449 36.1593 6.32599L39.6919 1.3307H43.9267L36.3649 11.5441V17.8289H32.6996V17.8246Z" fill="#1B1464"/>
<path d="M54.105 17.8245V1.32629H67.2034V4.01672H57.7746V8.48507H65.6747V11.1712H57.7746V17.8245H54.105Z" fill="#1B1464"/>
<path d="M84.6477 17.8245L82.8664 14.41H73.4633L71.7077 17.8245H67.6313L76.2894 1.32629H80.1131L88.7626 17.8245H84.6434H84.6477ZM79.4751 7.45689C79.2567 7.02419 79.0384 6.59578 78.8243 6.17165C78.6102 5.74752 78.3961 5.3191 78.1777 4.88212C77.9593 5.3191 77.7409 5.7518 77.5268 6.1845C77.3128 6.61291 77.0944 7.04561 76.876 7.48259L74.8292 11.5654H81.5219L79.4708 7.46116L79.4751 7.45689Z" fill="#1B1464"/>
<path d="M104.798 17.8245L97.0094 8.02667C96.7011 7.63253 96.397 7.24696 96.1016 6.87424C95.8019 6.49724 95.4978 6.11595 95.1853 5.7261V17.8245H91.6099V1.32629H95.8918L103.638 11.107C103.792 11.2997 103.95 11.4925 104.104 11.6896C104.259 11.8867 104.417 12.0837 104.571 12.2808C104.725 12.4779 104.884 12.6749 105.038 12.872C105.192 13.0691 105.351 13.2619 105.505 13.4547V1.32629H109.08V17.8245H104.798Z" fill="#1B1464"/>
<path d="M118.667 17.8245V4.01672H112.608V1.32629H128.413V4.01672H122.328V17.8245H118.663H118.667Z" fill="#1B1464"/>
<path d="M144.813 17.8245L143.031 14.41H133.628L131.873 17.8245H127.796L136.454 1.32629H140.278L148.928 17.8245H144.808H144.813ZM139.64 7.45689C139.422 7.02419 139.203 6.59578 138.989 6.17165C138.775 5.74752 138.561 5.3191 138.343 4.88212C138.124 5.3191 137.906 5.7518 137.692 6.1845C137.478 6.61291 137.259 7.04561 137.041 7.48259L134.994 11.5654H141.687L139.636 7.46116L139.64 7.45689Z" fill="#1B1464"/>
<path d="M150.773 14.2944C151.137 14.4186 151.557 14.5471 152.036 14.6799C152.516 14.8085 153.03 14.9284 153.578 15.0312C154.126 15.1384 154.695 15.224 155.286 15.2883C155.877 15.3526 156.468 15.3868 157.063 15.3868C157.902 15.3868 158.635 15.3397 159.26 15.2412C159.881 15.1426 160.399 15.0013 160.81 14.817C161.221 14.6328 161.525 14.4058 161.726 14.1401C161.927 13.8745 162.03 13.5704 162.03 13.2276C162.03 13.0477 161.996 12.8849 161.923 12.7392C161.85 12.5893 161.739 12.4522 161.581 12.3237C161.426 12.1952 161.225 12.0752 160.985 11.9638C160.746 11.8524 160.454 11.7453 160.116 11.6425C159.778 11.5397 159.392 11.4369 158.956 11.334C158.519 11.2312 158.031 11.1241 157.491 11.0127C156.763 10.8671 156.095 10.7043 155.483 10.5243C154.871 10.3444 154.318 10.1431 153.826 9.91601C153.334 9.68895 152.901 9.44047 152.529 9.16628C152.156 8.8921 151.843 8.59221 151.595 8.26661C151.347 7.94102 151.158 7.58544 151.03 7.19987C150.901 6.8143 150.841 6.39874 150.841 5.9489C150.841 5.46908 150.906 5.01496 151.038 4.58227C151.171 4.14957 151.372 3.74686 151.651 3.37843C151.925 3.00571 152.28 2.67155 152.708 2.37595C153.137 2.08034 153.646 1.82329 154.241 1.61337C154.832 1.40345 155.513 1.24065 156.284 1.12498C157.05 1.01359 157.911 0.953613 158.861 0.953613C159.508 0.953613 160.116 0.979319 160.69 1.03501C161.264 1.09071 161.803 1.16354 162.304 1.25351C162.805 1.34347 163.263 1.45487 163.683 1.5791C164.103 1.70334 164.475 1.83615 164.805 1.97752V4.77935C164.432 4.65939 164.021 4.53942 163.572 4.41947C163.122 4.29951 162.651 4.19241 162.15 4.09816C161.649 4.00391 161.122 3.9268 160.57 3.86682C160.018 3.80685 159.448 3.77685 158.861 3.77685C158.121 3.77685 157.483 3.82398 156.943 3.91394C156.404 4.00391 155.963 4.13672 155.612 4.30809C155.26 4.47945 155.003 4.68938 154.832 4.93786C154.665 5.18633 154.58 5.4648 154.58 5.77754C154.58 5.95747 154.618 6.12026 154.695 6.26592C154.772 6.41587 154.888 6.55296 155.051 6.68148C155.213 6.81001 155.415 6.92997 155.663 7.04136C155.911 7.15275 156.202 7.25985 156.545 7.36267C156.888 7.46549 157.277 7.56831 157.714 7.67113C158.151 7.77395 158.643 7.88105 159.187 7.99244C159.919 8.1381 160.587 8.29661 161.199 8.47226C161.812 8.64791 162.364 8.84498 162.852 9.06347C163.345 9.28196 163.777 9.52615 164.15 9.79176C164.522 10.0574 164.835 10.3573 165.083 10.6829C165.331 11.0127 165.52 11.3726 165.648 11.7667C165.772 12.1609 165.837 12.5979 165.837 13.0691C165.837 13.5404 165.76 14.0202 165.606 14.4615C165.451 14.9027 165.22 15.314 164.908 15.691C164.595 16.068 164.205 16.4107 163.73 16.7192C163.259 17.0234 162.702 17.2847 162.064 17.5032C161.426 17.7217 160.707 17.8888 159.898 18.0044C159.093 18.1201 158.198 18.1801 157.222 18.1801C156.541 18.1801 155.886 18.1501 155.252 18.0901C154.622 18.0301 154.031 17.9487 153.479 17.8502C152.927 17.7517 152.426 17.636 151.968 17.5075C151.509 17.3789 151.111 17.2461 150.773 17.1091V14.2815V14.2944Z" fill="#1B1464"/>
<path d="M174.778 17.8246V11.694L167.216 1.32642H171.562L175.069 6.34313C175.197 6.53164 175.33 6.72013 175.463 6.90863C175.596 7.09713 175.724 7.28136 175.857 7.46986C175.985 7.65836 176.118 7.84258 176.251 8.03108C176.383 8.21958 176.516 8.40807 176.649 8.59657C176.777 8.40807 176.91 8.21958 177.043 8.03108C177.176 7.84258 177.308 7.64979 177.441 7.46128C177.574 7.27278 177.707 7.08 177.839 6.8915C177.972 6.703 178.105 6.51449 178.233 6.32599L181.766 1.3307H186.001L178.439 11.5441V17.8289H174.773L174.778 17.8246Z" fill="#1B1464"/>
</svg>
