<svg width="186" height="19" viewBox="0 0 186 19" fill="none" xmlns="http://www.w3.org/2000/svg">
<path d="M18.8256 17.824V6.20541C18.4702 6.71094 18.1148 7.21647 17.768 7.722C17.4211 8.22752 17.0657 8.73304 16.7103 9.23857L12.7538 14.8679H10.1804L6.21534 9.21715C6.0355 8.96439 5.85995 8.71162 5.68867 8.46314C5.51311 8.21466 5.34183 7.9619 5.17055 7.71342C4.99927 7.46494 4.82372 7.21218 4.65244 6.9637C4.47688 6.71522 4.30132 6.46246 4.12576 6.2097V17.8282H0.571777V1.33008H4.62675L9.93633 8.91726C10.2104 9.31996 10.4887 9.7184 10.767 10.104C11.0453 10.4895 11.3237 10.8837 11.5977 11.2864C11.8846 10.8837 12.1629 10.4852 12.4412 10.0825C12.7153 9.67983 12.9979 9.27713 13.2848 8.87443L18.5644 1.33008H22.3881V17.8282H18.8341L18.8256 17.824Z" fill="white"/>
<path d="M32.6991 17.8243V11.6938L25.1372 1.32617H29.4833L32.9902 6.34289C33.1187 6.53139 33.2514 6.71988 33.3842 6.90838C33.5169 7.09689 33.6454 7.28111 33.7781 7.46962C33.9066 7.65812 34.0393 7.84233 34.1721 8.03084C34.3048 8.21934 34.4375 8.40783 34.5703 8.59633C34.6987 8.40783 34.8315 8.21934 34.9642 8.03084C35.0969 7.84233 35.2297 7.64954 35.3667 7.46104C35.5037 7.27254 35.6322 7.07976 35.7649 6.89126C35.8977 6.70276 36.0304 6.51425 36.1589 6.32575L39.6914 1.33046H43.9263L36.3644 11.5438V17.8286H32.6991V17.8243Z" fill="white"/>
<path d="M54.1045 17.8243V1.32617H67.2029V4.0166H57.7741V8.48495H65.6742V11.1711H57.7741V17.8243H54.1045Z" fill="white"/>
<path d="M84.6474 17.8243L82.8661 14.4099H73.4631L71.7075 17.8243H67.6311L76.2891 1.32617H80.1129L88.7624 17.8243H84.6431H84.6474ZM79.4749 7.45676C79.2565 7.02407 79.0381 6.59565 78.824 6.17153C78.6099 5.7474 78.3958 5.31898 78.1775 4.882C77.9591 5.31898 77.7407 5.75168 77.5266 6.18438C77.3125 6.61279 77.0941 7.04549 76.8757 7.48247L74.829 11.5652H81.5216L79.4706 7.46104L79.4749 7.45676Z" fill="white"/>
<path d="M104.798 17.8243L97.0089 8.02655C96.7006 7.63241 96.3966 7.24683 96.1011 6.87412C95.8014 6.49711 95.4973 6.11583 95.1848 5.72597V17.8243H91.6094V1.32617H95.8913L103.637 11.1068C103.791 11.2996 103.95 11.4924 104.104 11.6895C104.258 11.8865 104.417 12.0836 104.571 12.2807C104.725 12.4777 104.883 12.6748 105.037 12.8719C105.192 13.069 105.35 13.2618 105.504 13.4545V1.32617H109.08V17.8243H104.798Z" fill="white"/>
<path d="M118.667 17.8243V4.0166H112.608V1.32617H128.412V4.0166H122.328V17.8243H118.663H118.667Z" fill="white"/>
<path d="M144.812 17.8243L143.031 14.4099H133.628L131.872 17.8243H127.796L136.454 1.32617H140.278L148.927 17.8243H144.808H144.812ZM139.64 7.45676C139.421 7.02407 139.203 6.59565 138.989 6.17153C138.775 5.7474 138.561 5.31898 138.342 4.882C138.124 5.31898 137.905 5.75168 137.691 6.18438C137.477 6.61279 137.259 7.04549 137.041 7.48247L134.994 11.5652H141.686L139.635 7.46104L139.64 7.45676Z" fill="white"/>
<path d="M150.772 14.2939C151.136 14.4181 151.556 14.5467 152.036 14.6795C152.515 14.808 153.029 14.9279 153.577 15.0308C154.125 15.1379 154.695 15.2235 155.286 15.2878C155.876 15.3521 156.467 15.3863 157.063 15.3863C157.902 15.3863 158.634 15.3392 159.259 15.2407C159.88 15.1421 160.398 15.0008 160.809 14.8166C161.22 14.6323 161.524 14.4053 161.726 14.1397C161.927 13.874 162.03 13.5699 162.03 13.2271C162.03 13.0472 161.995 12.8844 161.923 12.7388C161.85 12.5888 161.738 12.4517 161.58 12.3232C161.426 12.1947 161.225 12.0747 160.985 11.9633C160.745 11.8519 160.454 11.7448 160.116 11.642C159.777 11.5392 159.392 11.4364 158.955 11.3336C158.518 11.2307 158.03 11.1236 157.491 11.0123C156.763 10.8666 156.095 10.7038 155.483 10.5239C154.87 10.3439 154.318 10.1426 153.825 9.91552C153.333 9.68846 152.901 9.43998 152.528 9.1658C152.156 8.89161 151.843 8.59172 151.595 8.26613C151.346 7.94053 151.158 7.58496 151.029 7.19938C150.901 6.81381 150.841 6.39825 150.841 5.94841C150.841 5.46859 150.905 5.01447 151.038 4.58178C151.171 4.14908 151.372 3.74637 151.65 3.37794C151.924 3.00522 152.28 2.67106 152.708 2.37546C153.136 2.07985 153.646 1.82281 154.241 1.61288C154.832 1.40296 155.513 1.24016 156.283 1.12449C157.05 1.0131 157.91 0.953125 158.861 0.953125C159.508 0.953125 160.116 0.978831 160.689 1.03452C161.263 1.09022 161.803 1.16305 162.304 1.25302C162.805 1.34299 163.263 1.45438 163.682 1.57862C164.102 1.70286 164.475 1.83566 164.804 1.97704V4.77886C164.432 4.6589 164.021 4.53893 163.571 4.41898C163.122 4.29902 162.65 4.19192 162.15 4.09767C161.649 4.00342 161.122 3.92631 160.569 3.86634C160.017 3.80636 159.448 3.77636 158.861 3.77636C158.12 3.77636 157.482 3.82349 156.943 3.91346C156.403 4.00342 155.962 4.13624 155.611 4.3076C155.26 4.47897 155.003 4.68889 154.832 4.93737C154.665 5.18585 154.579 5.46431 154.579 5.77705C154.579 5.95698 154.618 6.11977 154.695 6.26544C154.772 6.41538 154.887 6.55247 155.05 6.681C155.213 6.80952 155.414 6.92949 155.662 7.04087C155.911 7.15226 156.202 7.25936 156.544 7.36218C156.887 7.465 157.277 7.56782 157.713 7.67064C158.15 7.77346 158.643 7.88056 159.186 7.99195C159.919 8.13761 160.587 8.29612 161.199 8.47177C161.811 8.64742 162.364 8.84449 162.852 9.06298C163.344 9.28147 163.777 9.52566 164.149 9.79127C164.522 10.0569 164.834 10.3568 165.083 10.6824C165.331 11.0123 165.519 11.3721 165.648 11.7663C165.772 12.1604 165.836 12.5974 165.836 13.0686C165.836 13.5399 165.759 14.0197 165.605 14.461C165.451 14.9022 165.22 15.3135 164.907 15.6905C164.594 16.0675 164.205 16.4102 163.73 16.7187C163.259 17.0229 162.702 17.2842 162.064 17.5027C161.426 17.7212 160.707 17.8883 159.897 18.0039C159.092 18.1196 158.197 18.1796 157.221 18.1796C156.54 18.1796 155.885 18.1496 155.251 18.0896C154.622 18.0296 154.031 17.9482 153.479 17.8497C152.926 17.7512 152.425 17.6355 151.967 17.507C151.509 17.3785 151.111 17.2457 150.772 17.1086V14.281V14.2939Z" fill="white"/>
<path d="M174.777 17.8243V11.6938L167.215 1.32617H171.561L175.068 6.34289C175.197 6.53139 175.33 6.71988 175.462 6.90838C175.595 7.09689 175.723 7.28111 175.856 7.46962C175.985 7.65812 176.117 7.84233 176.25 8.03084C176.383 8.21934 176.516 8.40783 176.648 8.59633C176.777 8.40783 176.91 8.21934 177.042 8.03084C177.175 7.84233 177.308 7.64954 177.441 7.46104C177.573 7.27254 177.706 7.07976 177.839 6.89126C177.972 6.70276 178.104 6.51425 178.233 6.32575L181.765 1.33046H186L178.438 11.5438V17.8286H174.773L174.777 17.8243Z" fill="white"/>
</svg>
