<svg width="113" height="19" viewBox="0 0 113 19" fill="none" xmlns="http://www.w3.org/2000/svg">
<path d="M0.146484 17.6651V1.16699H3.81609V14.979H12.7653V17.6651H0.146484Z" fill="white"/>
<path d="M16.293 17.6651V1.16699H30.1878V3.85741H19.9626V7.86734H28.7319V10.5535H19.9626V14.9747H30.2777V17.6609H16.293V17.6651Z" fill="white"/>
<path d="M49.2302 17.6651L47.4489 14.2507H38.0458L36.2902 17.6651H32.2139L40.8719 1.16699H44.6957L53.3451 17.6651H49.2259H49.2302ZM44.0576 7.29757C43.8393 6.86487 43.6209 6.43646 43.4068 6.01233C43.1927 5.58821 42.9786 5.15979 42.7602 4.72281C42.5418 5.15979 42.3235 5.59248 42.1094 6.02517C41.8953 6.45359 41.6769 6.88629 41.4585 7.32328L39.4118 11.406H46.1044L44.0534 7.30183L44.0576 7.29757Z" fill="white"/>
<path d="M69.196 9.688H72.8656V16.774C72.523 16.8896 72.1548 17.001 71.7566 17.1038C71.3583 17.2109 70.943 17.3095 70.5062 17.3994C70.0695 17.4937 69.6199 17.5794 69.1531 17.6565C68.6864 17.7336 68.2154 17.8021 67.7401 17.8578C67.2605 17.9135 66.7853 17.9564 66.3057 17.9863C65.8261 18.0163 65.3551 18.0292 64.8927 18.0292C63.3726 18.0292 62.0024 17.8493 60.7735 17.4894C59.5488 17.1295 58.504 16.5897 57.6434 15.8743C56.7827 15.1588 56.119 14.2592 55.6566 13.1839C55.1941 12.1085 54.9629 10.849 54.9629 9.41384C54.9629 8.57415 55.0571 7.78158 55.2455 7.02758C55.4339 6.27357 55.7122 5.57955 56.0848 4.94121C56.4573 4.30288 56.924 3.7288 57.4849 3.21899C58.0459 2.70918 58.6967 2.27649 59.4375 1.91662C60.1783 1.55676 61.0175 1.28255 61.9467 1.08976C62.8759 0.896978 63.895 0.802734 65.0082 0.802734C65.475 0.802734 65.9331 0.815598 66.3742 0.841303C66.8195 0.867008 67.2477 0.905547 67.663 0.956957C68.0741 1.00837 68.4723 1.06836 68.8491 1.13691C69.226 1.20545 69.5856 1.28685 69.9325 1.37682C70.275 1.46678 70.609 1.56532 70.9259 1.66814C71.2427 1.77524 71.551 1.88662 71.8465 2.01086V4.94976C71.4354 4.80839 70.9858 4.66274 70.4934 4.50851C70.0052 4.35428 69.4829 4.21289 68.9262 4.08865C68.3696 3.96441 67.7872 3.85732 67.1792 3.77592C66.5712 3.69452 65.9417 3.65169 65.2909 3.65169C64.1476 3.65169 63.1585 3.77593 62.3321 4.02869C61.5056 4.28146 60.8248 4.64988 60.2939 5.14255C59.7586 5.63094 59.3647 6.23502 59.1121 6.95047C58.8594 7.66592 58.731 8.48847 58.731 9.41384C58.731 10.035 58.7866 10.6134 58.9023 11.1403C59.0136 11.6673 59.1891 12.1471 59.4204 12.5755C59.6516 13.0039 59.9427 13.3809 60.2981 13.7108C60.6535 14.0407 61.0689 14.3149 61.5527 14.5333C62.0323 14.7561 62.5804 14.9189 63.197 15.0346C63.8093 15.146 64.4944 15.206 65.2438 15.206C65.6463 15.206 66.0274 15.1931 66.387 15.1717C66.7467 15.146 67.085 15.1117 67.4061 15.0646C67.7273 15.0175 68.0399 14.9618 68.3353 14.8975C68.6308 14.8332 68.9219 14.7604 69.2088 14.679V9.688H69.196Z" fill="white"/>
<path d="M90.0148 1.1626H93.6544V11.0075C93.6544 11.7872 93.5816 12.4984 93.4275 13.1496C93.2733 13.8008 93.0507 14.3834 92.7509 14.906C92.4469 15.4287 92.0701 15.8828 91.6119 16.2727C91.1538 16.6625 90.6185 16.9881 90.0062 17.2495C89.3939 17.5108 88.7002 17.7079 87.9252 17.8364C87.1502 17.9649 86.2981 18.0335 85.3646 18.0335C84.4312 18.0335 83.5191 17.9692 82.7355 17.8364C81.9519 17.7036 81.2497 17.5108 80.6331 17.2495C80.0165 16.9881 79.4855 16.6625 79.0402 16.2727C78.5949 15.8828 78.2267 15.4287 77.9355 14.906C77.6443 14.3834 77.4302 13.8008 77.2889 13.1496C77.1476 12.4984 77.0791 11.7872 77.0791 11.0075V1.1626H80.7187V10.8233C80.7187 11.5559 80.8086 12.1899 80.9842 12.7297C81.1598 13.2695 81.4381 13.7193 81.8106 14.0792C82.1874 14.4391 82.667 14.7047 83.2579 14.8846C83.8445 15.0646 84.5468 15.1502 85.3689 15.1502C86.191 15.1502 86.8933 15.0603 87.4799 14.8846C88.0665 14.7047 88.5504 14.4391 88.9272 14.0792C89.304 13.7236 89.578 13.2738 89.7536 12.7297C89.9291 12.1856 90.0191 11.5516 90.0191 10.8233V1.1626H90.0148Z" fill="white"/>
<path d="M98.5957 17.6651V1.16699H112.491V3.85741H102.265V7.86734H111.035V10.5535H102.265V14.9747H112.58V17.6609H98.5957V17.6651Z" fill="white"/>
</svg>
