<svg width="81" height="50" viewBox="0 0 81 50" fill="none" xmlns="http://www.w3.org/2000/svg">
<path d="M20.4858 35.1298L21.7489 32.9449L29.2808 19.8955C31.0749 16.7852 34.3891 14.8702 37.9817 14.8702H53.5807C55.4433 14.8702 57.1647 13.8763 58.0981 12.2612L61.1425 6.98313C61.6307 6.13916 61.2967 5.06384 60.4189 4.63542C54.33 1.66653 47.4875 0 40.2554 0C23.5131 0 8.86035 8.92383 0.767533 22.2689C-0.255845 23.9525 -0.255845 26.0432 0.767533 27.7268C4.22732 33.4333 8.88605 38.3301 14.3926 42.0658C15.2019 42.6142 16.3066 42.3743 16.7947 41.526L20.4858 35.1298Z" fill="url(#paint0_linear_2218_204)"/>
<path d="M63.7163 8.46933L51.2345 30.1042C49.4403 33.2144 46.1219 35.1294 42.5336 35.1294H26.9346C25.072 35.1294 23.3506 36.1233 22.4172 37.7385L19.3727 43.0165C18.8846 43.8605 19.2186 44.9358 20.0964 45.3642C26.1853 48.3331 33.0278 49.9996 40.2599 49.9996C57.0622 49.9996 71.762 41.0115 79.8334 27.5851C80.784 26.0042 80.784 24.0036 79.8334 22.4184C76.365 16.652 71.6763 11.7038 66.1227 7.93382C65.3134 7.38545 64.2087 7.62535 63.7205 8.47361L63.7163 8.46933Z" fill="url(#paint1_linear_2218_204)"/>
<path d="M26.228 25.1772L29.2767 19.8906C31.0709 16.7803 34.3851 14.8653 37.9776 14.8653H54.3731C55.7433 14.8653 57.0107 14.1327 57.6958 12.946L61.1428 6.97394C61.6309 6.12997 61.2884 5.05038 60.4106 4.62625C57.6958 3.30246 54.8312 2.23998 51.8467 1.46884C45.6636 -0.129138 39.1851 2.71981 35.9951 8.25061L26.228 25.1729V25.1772Z" fill="url(#paint2_linear_2218_204)"/>
<path d="M54.2831 24.8184L51.2343 30.105C49.4402 33.2153 46.126 35.1303 42.5335 35.1303H26.138C24.7678 35.1303 23.5004 35.8628 22.8152 37.0495L19.3683 43.0216C18.8802 43.8656 19.2227 44.9452 20.1005 45.3693C22.8152 46.6931 25.6799 47.7556 28.6643 48.5267C34.8474 50.1247 41.326 47.2758 44.516 41.7449L54.2831 24.8226V24.8184Z" fill="url(#paint3_linear_2218_204)"/>
<defs>
<linearGradient id="paint0_linear_2218_204" x1="30.681" y1="42.3614" x2="30.681" y2="0" gradientUnits="userSpaceOnUse">
<stop stop-color="#47DAFF"/>
<stop offset="0.21" stop-color="#43D2FE"/>
<stop offset="0.52" stop-color="#3ABDFE"/>
<stop offset="0.9" stop-color="#2A9CFD"/>
<stop offset="1" stop-color="#2692FD"/>
</linearGradient>
<linearGradient id="paint1_linear_2218_204" x1="49.8428" y1="49.9953" x2="49.8428" y2="7.63393" gradientUnits="userSpaceOnUse">
<stop stop-color="#FF2623"/>
<stop offset="0.12" stop-color="#FF312D"/>
<stop offset="0.47" stop-color="#FF4C47"/>
<stop offset="0.77" stop-color="#FF5D56"/>
<stop offset="1" stop-color="#FF635C"/>
</linearGradient>
<linearGradient id="paint2_linear_2218_204" x1="34.946" y1="10.0671" x2="53.2602" y2="20.6321" gradientUnits="userSpaceOnUse">
<stop stop-color="#0000FF"/>
<stop offset="0.66" stop-color="#1861FB"/>
<stop offset="1" stop-color="#3C77FC"/>
</linearGradient>
<linearGradient id="paint3_linear_2218_204" x1="27.2513" y1="29.3552" x2="45.5655" y2="39.9203" gradientUnits="userSpaceOnUse">
<stop stop-color="#CC0033"/>
<stop offset="1" stop-color="#87005A"/>
</linearGradient>
</defs>
</svg>
