<svg width="19" height="18" viewBox="0 0 19 18" fill="none" xmlns="http://www.w3.org/2000/svg">
<g clip-path="url(#clip0_2113_592)">
<path d="M9.3335 1.6207C11.7382 1.6207 12.023 1.63125 12.9687 1.67344C13.8476 1.71211 14.3222 1.85977 14.6386 1.98281C15.0569 2.14453 15.3593 2.34141 15.6722 2.6543C15.9886 2.9707 16.1819 3.26953 16.3437 3.68789C16.4667 4.0043 16.6144 4.48242 16.653 5.35781C16.6952 6.30703 16.7058 6.5918 16.7058 8.99297C16.7058 11.3977 16.6952 11.6824 16.653 12.6281C16.6144 13.507 16.4667 13.9816 16.3437 14.298C16.1819 14.7164 15.9851 15.0187 15.6722 15.3316C15.3558 15.648 15.0569 15.8414 14.6386 16.0031C14.3222 16.1262 13.844 16.2738 12.9687 16.3125C12.0194 16.3547 11.7347 16.3652 9.3335 16.3652C6.92881 16.3652 6.64404 16.3547 5.69834 16.3125C4.81943 16.2738 4.34482 16.1262 4.02842 16.0031C3.61006 15.8414 3.30771 15.6445 2.99482 15.3316C2.67842 15.0152 2.48506 14.7164 2.32334 14.298C2.20029 13.9816 2.05264 13.5035 2.01396 12.6281C1.97178 11.6789 1.96123 11.3941 1.96123 8.99297C1.96123 6.58828 1.97178 6.30351 2.01396 5.35781C2.05264 4.47891 2.20029 4.0043 2.32334 3.68789C2.48506 3.26953 2.68193 2.96719 2.99482 2.6543C3.31123 2.33789 3.61006 2.14453 4.02842 1.98281C4.34482 1.85977 4.82295 1.71211 5.69834 1.67344C6.64404 1.63125 6.92881 1.6207 9.3335 1.6207ZM9.3335 0C6.89014 0 6.58428 0.0105469 5.62451 0.0527344C4.66826 0.0949219 4.01084 0.249609 3.44131 0.471094C2.84717 0.703125 2.34443 1.00898 1.84522 1.51172C1.34248 2.01094 1.03662 2.51367 0.80459 3.1043C0.583105 3.67734 0.428418 4.33125 0.38623 5.2875C0.344043 6.25078 0.333496 6.55664 0.333496 9C0.333496 11.4434 0.344043 11.7492 0.38623 12.709C0.428418 13.6652 0.583105 14.3227 0.80459 14.8922C1.03662 15.4863 1.34248 15.9891 1.84522 16.4883C2.34443 16.9875 2.84717 17.2969 3.43779 17.5254C4.01084 17.7469 4.66475 17.9016 5.621 17.9437C6.58076 17.9859 6.88662 17.9965 9.32998 17.9965C11.7733 17.9965 12.0792 17.9859 13.039 17.9437C13.9952 17.9016 14.6526 17.7469 15.2222 17.5254C15.8128 17.2969 16.3155 16.9875 16.8147 16.4883C17.314 15.9891 17.6233 15.4863 17.8519 14.8957C18.0733 14.3227 18.228 13.6687 18.2702 12.7125C18.3124 11.7527 18.323 11.4469 18.323 9.00352C18.323 6.56016 18.3124 6.2543 18.2702 5.29453C18.228 4.33828 18.0733 3.68086 17.8519 3.11133C17.6304 2.51367 17.3245 2.01094 16.8218 1.51172C16.3226 1.0125 15.8198 0.703125 15.2292 0.474609C14.6562 0.253125 14.0022 0.0984375 13.046 0.05625C12.0827 0.0105469 11.7769 0 9.3335 0Z" fill="white"/>
<path d="M9.3335 4.37695C6.78115 4.37695 4.71045 6.44766 4.71045 9C4.71045 11.5523 6.78115 13.623 9.3335 13.623C11.8858 13.623 13.9565 11.5523 13.9565 9C13.9565 6.44766 11.8858 4.37695 9.3335 4.37695ZM9.3335 11.9988C7.67764 11.9988 6.33467 10.6559 6.33467 9C6.33467 7.34414 7.67764 6.00117 9.3335 6.00117C10.9894 6.00117 12.3323 7.34414 12.3323 9C12.3323 10.6559 10.9894 11.9988 9.3335 11.9988Z" fill="white"/>
<path d="M15.2187 4.19453C15.2187 4.79219 14.7335 5.27383 14.1394 5.27383C13.5417 5.27383 13.0601 4.78867 13.0601 4.19453C13.0601 3.59688 13.5452 3.11523 14.1394 3.11523C14.7335 3.11523 15.2187 3.60039 15.2187 4.19453Z" fill="white"/>
</g>
<defs>
<clipPath id="clip0_2113_592">
<rect width="18" height="18" fill="white" transform="translate(0.333496)"/>
</clipPath>
</defs>
</svg>
