<svg width="19" height="18" viewBox="0 0 19 18" fill="none" xmlns="http://www.w3.org/2000/svg">
<g clip-path="url(#clip0_2113_590)">
<path d="M18.3335 9C18.3335 4.02943 14.3041 0 9.3335 0C4.36293 0 0.333496 4.02943 0.333496 9C0.333496 13.4921 3.62465 17.2155 7.92725 17.8907V11.6016H5.64209V9H7.92725V7.01719C7.92725 4.76156 9.27092 3.51562 11.3267 3.51562C12.3111 3.51562 13.3413 3.69141 13.3413 3.69141V5.90625H12.2065C11.0885 5.90625 10.7397 6.60006 10.7397 7.3125V9H13.2358L12.8368 11.6016H10.7397V17.8907C15.0423 17.2155 18.3335 13.4921 18.3335 9Z" fill="white"/>
</g>
<defs>
<clipPath id="clip0_2113_590">
<rect width="18" height="18" fill="white" transform="translate(0.333496)"/>
</clipPath>
</defs>
</svg>
