<svg width="186" height="19" fill="none" xmlns="http://www.w3.org/2000/svg"><path d="M18.826 17.824V6.205c-.356.506-.711 1.011-1.058 1.517-.347.506-.702 1.011-1.058 1.517l-3.956 5.629H10.18l-3.965-5.65c-.18-.254-.355-.506-.526-.755-.176-.248-.347-.501-.518-.75l-.519-.75c-.175-.248-.35-.5-.526-.753v11.618H.572V1.33h4.055l5.31 7.587c.273.403.552.801.83 1.187.278.386.557.78.83 1.182.288-.402.566-.8.844-1.204.274-.402.557-.805.844-1.208l5.28-7.544h3.823v16.498h-3.554l-.008-.004ZM32.7 17.824v-6.13L25.136 1.326h4.346l3.507 5.017c.129.188.261.377.394.565l.394.562c.129.188.261.372.394.56l.398.566c.129-.188.261-.377.394-.565.133-.189.266-.381.403-.57.137-.188.265-.381.398-.57.133-.188.265-.377.394-.565L39.69 1.33h4.235l-7.562 10.214v6.285H32.7v-.005ZM54.105 17.824V1.326h13.098v2.69h-9.429v4.469h7.9v2.686h-7.9v6.653h-3.67ZM84.647 17.824l-1.78-3.414h-9.404l-1.755 3.414H67.63L76.29 1.326h3.824l8.65 16.498h-4.12.004ZM79.475 7.457c-.218-.433-.437-.861-.651-1.285l-.647-1.29c-.218.437-.436.87-.65 1.302-.215.429-.433.861-.651 1.298l-2.047 4.083h6.693L79.47 7.461l.004-.004ZM104.798 17.824l-7.79-9.797a223.745 223.745 0 0 0-1.823-2.301v12.098h-3.576V1.326h4.282l7.746 9.78c.154.194.313.386.467.584.154.197.313.394.467.59.154.198.312.395.466.592.155.197.313.39.467.582V1.326h3.576v16.498h-4.282ZM118.667 17.824V4.017h-6.059v-2.69h15.804v2.69h-6.084v13.807h-3.665.004ZM144.812 17.824l-1.781-3.414h-9.403l-1.756 3.414h-4.076l8.658-16.498h3.824l8.649 16.498h-4.119.004ZM139.64 7.457l-.651-1.285-.647-1.29c-.218.437-.437.87-.651 1.302l-.65 1.298-2.047 4.083h6.692l-2.051-4.104.005-.004ZM150.772 14.294c.364.124.784.253 1.264.386.479.128.993.248 1.541.35a20.44 20.44 0 0 0 1.709.258c.59.064 1.181.098 1.777.098.839 0 1.571-.047 2.196-.145.621-.099 1.139-.24 1.55-.424.411-.185.715-.412.917-.677.201-.266.304-.57.304-.913 0-.18-.035-.343-.107-.488a1.233 1.233 0 0 0-.343-.416 2.723 2.723 0 0 0-.595-.36 6.777 6.777 0 0 0-.869-.321 19.056 19.056 0 0 0-1.161-.308 54.68 54.68 0 0 0-1.464-.322 23.45 23.45 0 0 1-2.008-.488 12.15 12.15 0 0 1-1.658-.608 7.462 7.462 0 0 1-1.297-.75 4.569 4.569 0 0 1-.933-.9 3.65 3.65 0 0 1-.566-1.067 3.941 3.941 0 0 1-.188-1.25c0-.48.064-.935.197-1.367.133-.433.334-.836.612-1.204a4.4 4.4 0 0 1 1.058-1.003 6.48 6.48 0 0 1 1.533-.762c.591-.21 1.272-.373 2.042-.489a18.016 18.016 0 0 1 2.578-.17 18.935 18.935 0 0 1 3.443.299c.501.09.959.201 1.378.326.42.124.793.257 1.122.398v2.802c-.372-.12-.783-.24-1.233-.36a19.474 19.474 0 0 0-3.002-.553c-.552-.06-1.121-.09-1.708-.09-.741 0-1.379.047-1.918.137-.54.09-.981.223-1.332.395-.351.171-.608.38-.779.63a1.47 1.47 0 0 0-.253.84c0 .179.039.342.116.487.077.15.192.287.355.416.163.129.364.248.612.36.249.111.54.218.882.321.343.103.733.206 1.169.309.437.102.93.21 1.473.32.733.147 1.401.305 2.013.48.612.176 1.165.373 1.653.592.492.218.925.463 1.297.728.373.266.685.566.934.891.248.33.436.69.565 1.084.124.394.188.831.188 1.303 0 .47-.077.95-.231 1.392a3.951 3.951 0 0 1-.698 1.23 5.17 5.17 0 0 1-1.177 1.028 7.614 7.614 0 0 1-1.666.784 11.86 11.86 0 0 1-2.167.5c-.805.117-1.7.177-2.676.177a20.887 20.887 0 0 1-3.742-.33 15.924 15.924 0 0 1-1.512-.343 11.509 11.509 0 0 1-1.195-.398V14.28v.013ZM174.777 17.824v-6.13l-7.562-10.368h4.346l3.507 5.017c.129.188.262.377.394.565l.394.562c.129.188.261.372.394.56l.398.566c.129-.188.262-.377.394-.565l.399-.57.398-.57c.133-.188.265-.377.394-.565l3.532-4.996H186l-7.562 10.214v6.285h-3.665l.004-.005Z" fill="#fff"/></svg>