<svg width="113" height="19" fill="none" xmlns="http://www.w3.org/2000/svg"><path d="M.146 17.665V1.167h3.67v13.812h8.95v2.686H.145ZM16.293 17.665V1.167h13.895v2.69H19.963v4.01h8.769v2.686h-8.77v4.422h10.316v2.686H16.293v.004ZM49.23 17.665l-1.781-3.414h-9.403l-1.756 3.414h-4.076l8.658-16.498h3.824l8.65 16.498h-4.12.004ZM44.058 7.298l-.651-1.286c-.214-.424-.428-.852-.647-1.29-.218.438-.436.87-.65 1.303-.215.429-.433.861-.651 1.298l-2.047 4.083h6.692l-2.05-4.104.004-.004ZM69.196 9.688h3.67v7.086c-.343.116-.711.227-1.11.33-.398.107-.813.206-1.25.295a30.32 30.32 0 0 1-2.766.458c-.48.056-.955.1-1.434.13-.48.03-.95.042-1.413.042-1.52 0-2.89-.18-4.12-.54-1.224-.36-2.269-.9-3.13-1.615a7.08 7.08 0 0 1-1.986-2.69c-.463-1.075-.694-2.335-.694-3.77 0-.84.094-1.632.282-2.386a7.914 7.914 0 0 1 .84-2.087 7.268 7.268 0 0 1 1.4-1.722 8.218 8.218 0 0 1 1.953-1.302c.74-.36 1.58-.634 2.509-.827.929-.193 1.948-.287 3.061-.287.467 0 .925.013 1.366.038.446.026.874.065 1.289.116.411.051.81.111 1.186.18.377.068.737.15 1.084.24a13.694 13.694 0 0 1 1.914.634V4.95c-.412-.142-.861-.287-1.354-.441a18.787 18.787 0 0 0-1.567-.42 20.499 20.499 0 0 0-1.747-.313 14.218 14.218 0 0 0-1.888-.124c-1.143 0-2.133.124-2.959.377-.826.252-1.507.62-2.038 1.114a4.376 4.376 0 0 0-1.182 1.807c-.253.716-.381 1.538-.381 2.464 0 .621.056 1.2.171 1.726.112.527.287 1.007.518 1.435.232.429.523.806.878 1.136.355.33.77.604 1.255.822.48.223 1.027.386 1.644.502.612.111 1.297.171 2.047.171.402 0 .783-.013 1.143-.034a13.82 13.82 0 0 0 1.948-.274c.296-.065.587-.138.874-.219V9.688h-.013ZM90.015 1.163h3.64v9.845c0 .78-.073 1.49-.228 2.142a6.515 6.515 0 0 1-.676 1.756c-.304.523-.68.977-1.14 1.367-.457.39-.993.715-1.605.977a9.078 9.078 0 0 1-2.08.586c-.776.129-1.628.198-2.561.198-.934 0-1.846-.065-2.63-.198-.783-.132-1.485-.325-2.102-.586a5.88 5.88 0 0 1-1.593-.977 5.1 5.1 0 0 1-1.105-1.367 6.338 6.338 0 0 1-.646-1.756 10.096 10.096 0 0 1-.21-2.143V1.164h3.64v9.66c0 .733.09 1.367.265 1.907.176.54.454.99.827 1.35.376.36.856.625 1.447.805.587.18 1.289.265 2.11.265.823 0 1.525-.09 2.112-.265.587-.18 1.07-.446 1.447-.806a3.14 3.14 0 0 0 .827-1.35c.175-.543.265-1.177.265-1.906v-9.66h-.004ZM98.596 17.665V1.167h13.895v2.69h-10.226v4.01h8.77v2.686h-8.77v4.422h10.315v2.686H98.596v.004Z" fill="#fff"/></svg>