<svg width="186" height="19" fill="none" xmlns="http://www.w3.org/2000/svg"><path d="M18.826 17.824V6.206c-.355.505-.71 1.011-1.058 1.516-.346.506-.702 1.012-1.057 1.517l-3.957 5.63h-2.573L6.216 9.217a61.82 61.82 0 0 1-.527-.754c-.175-.249-.347-.502-.518-.75l-.518-.75c-.176-.248-.351-.501-.527-.754V17.83H.572V1.33h4.055l5.31 7.587c.274.402.552.8.83 1.187.279.385.557.78.831 1.182.287-.403.565-.801.844-1.204.274-.403.556-.805.843-1.208l5.28-7.544h3.824v16.498h-3.554l-.009-.005ZM32.7 17.825v-6.131L25.138 1.326h4.346l3.507 5.017c.128.189.26.377.394.566.132.188.26.372.394.56.128.19.26.374.393.562l.399.566c.128-.189.261-.377.394-.566.132-.188.265-.381.402-.57.137-.188.266-.381.398-.57.133-.188.266-.377.394-.565l3.533-4.995h4.235l-7.562 10.213v6.285H32.7v-.004ZM54.105 17.825V1.326h13.098v2.69h-9.428v4.47h7.9v2.685h-7.9v6.654h-3.67ZM84.648 17.825l-1.782-3.415h-9.403l-1.755 3.415H67.63L76.29 1.326h3.824l8.65 16.498h-4.12.005ZM79.475 7.457c-.218-.433-.437-.861-.65-1.285-.215-.424-.429-.853-.647-1.29-.219.437-.437.87-.651 1.303-.214.428-.433.86-.651 1.298l-2.047 4.082h6.693L79.47 7.461l.004-.004ZM104.798 17.825l-7.789-9.798a229.82 229.82 0 0 0-1.824-2.3v12.098H91.61V1.326h4.282l7.746 9.781c.154.193.312.386.466.583l.467.59c.154.198.313.395.467.592.154.197.313.39.467.583V1.326h3.575v16.498h-4.282ZM118.667 17.825V4.017h-6.059v-2.69h15.805v2.69h-6.085v13.808h-3.665.004ZM144.813 17.825l-1.782-3.415h-9.403l-1.755 3.415h-4.077l8.658-16.499h3.824l8.65 16.498h-4.12.005ZM139.64 7.457c-.218-.433-.437-.861-.651-1.285-.214-.424-.428-.853-.646-1.29-.219.437-.437.87-.651 1.303-.214.428-.433.86-.651 1.298l-2.047 4.082h6.693l-2.051-4.104.004-.004ZM150.773 14.294c.364.125.784.253 1.263.386.48.129.994.248 1.542.351.548.107 1.117.193 1.708.257a16.4 16.4 0 0 0 1.777.099c.839 0 1.572-.047 2.197-.146.621-.098 1.139-.24 1.55-.424.411-.184.715-.411.916-.677.201-.266.304-.57.304-.912 0-.18-.034-.343-.107-.489a1.23 1.23 0 0 0-.342-.415 2.756 2.756 0 0 0-.596-.36 6.72 6.72 0 0 0-.869-.322 19.078 19.078 0 0 0-1.16-.308 54.73 54.73 0 0 0-1.465-.321 23.375 23.375 0 0 1-2.008-.489 12.12 12.12 0 0 1-1.657-.608 7.424 7.424 0 0 1-1.297-.75 4.549 4.549 0 0 1-.934-.9 3.647 3.647 0 0 1-.565-1.066 3.913 3.913 0 0 1-.189-1.251c0-.48.065-.934.197-1.367a3.85 3.85 0 0 1 .613-1.204 4.395 4.395 0 0 1 1.057-1.002 6.5 6.5 0 0 1 1.533-.763c.591-.21 1.272-.372 2.043-.488a18.001 18.001 0 0 1 2.577-.171 18.97 18.97 0 0 1 3.443.3c.501.09.959.2 1.379.325.42.124.792.257 1.122.399v2.801c-.373-.12-.784-.24-1.233-.36a19.503 19.503 0 0 0-3.002-.552c-.552-.06-1.122-.09-1.709-.09-.74 0-1.378.047-1.918.137-.539.09-.98.223-1.331.394-.352.171-.609.381-.78.63a1.47 1.47 0 0 0-.252.84c0 .18.038.342.115.488.077.15.193.287.356.415.162.129.364.249.612.36.248.112.539.219.882.322.343.102.732.205 1.169.308.437.103.929.21 1.473.321.732.146 1.4.305 2.012.48.613.176 1.165.373 1.653.591.493.219.925.463 1.298.729.372.265.685.565.933.89.248.33.437.69.565 1.085.124.394.189.83.189 1.302 0 .471-.077.951-.231 1.392a3.992 3.992 0 0 1-.698 1.23c-.313.377-.703.72-1.178 1.028a7.614 7.614 0 0 1-1.666.784c-.638.219-1.357.386-2.166.501-.805.116-1.7.176-2.676.176a20.887 20.887 0 0 1-3.743-.33 15.97 15.97 0 0 1-1.511-.343 11.397 11.397 0 0 1-1.195-.398v-2.828.013ZM174.778 17.825v-6.131l-7.562-10.368h4.346l3.507 5.017c.128.189.261.377.394.566l.394.56c.128.19.261.374.394.562l.398.566c.128-.189.261-.377.394-.566.133-.188.265-.381.398-.57.133-.188.266-.381.398-.57.133-.188.266-.377.394-.565l3.533-4.995h4.235l-7.562 10.213v6.285h-3.666l.005-.004Z" fill="#1B1464"/></svg>