<svg width="113" height="19" fill="none" xmlns="http://www.w3.org/2000/svg"><path d="M.146 17.666V1.168h3.67V14.98h8.948v2.686H.146ZM16.293 17.666V1.168h13.894v2.69H19.962v4.01h8.77v2.687h-8.77v4.42h10.315v2.687H16.292v.004ZM49.23 17.666l-1.782-3.414h-9.403l-1.756 3.414h-4.076L40.87 1.168h3.824l8.65 16.498h-4.12.004ZM44.056 7.3l-.651-1.286c-.214-.424-.428-.852-.647-1.29-.218.438-.437.87-.65 1.303-.215.429-.433.861-.651 1.298l-2.047 4.083h6.692l-2.05-4.104.004-.004ZM69.195 9.689h3.67v7.086c-.343.116-.71.227-1.109.33-.398.107-.814.205-1.25.295a30.343 30.343 0 0 1-2.766.458c-.48.056-.955.1-1.435.13-.48.03-.95.042-1.413.042-1.52 0-2.89-.18-4.119-.54-1.225-.36-2.27-.9-3.13-1.615a7.08 7.08 0 0 1-1.987-2.69c-.462-1.075-.694-2.335-.694-3.77 0-.84.095-1.632.283-2.386a7.914 7.914 0 0 1 .84-2.087 7.268 7.268 0 0 1 1.4-1.722 8.217 8.217 0 0 1 1.952-1.302c.74-.36 1.58-.634 2.51-.827.928-.193 1.947-.287 3.06-.287.468 0 .926.013 1.367.038a19.743 19.743 0 0 1 2.475.296c.376.068.736.15 1.083.24a13.699 13.699 0 0 1 1.914.634V4.95a51.89 51.89 0 0 0-1.353-.442 18.776 18.776 0 0 0-1.567-.42 20.499 20.499 0 0 0-1.747-.312 14.22 14.22 0 0 0-1.889-.124c-1.143 0-2.132.124-2.958.377-.827.252-1.508.62-2.039 1.114a4.377 4.377 0 0 0-1.181 1.807c-.253.716-.382 1.538-.382 2.464 0 .621.056 1.2.172 1.726.111.527.287 1.007.518 1.435.231.429.522.806.878 1.136.355.33.77.604 1.254.822.48.223 1.028.386 1.645.502.612.111 1.297.17 2.046.17.403 0 .784-.012 1.144-.033a13.832 13.832 0 0 0 1.948-.274c.295-.065.586-.138.873-.219V9.689h-.013ZM90.014 1.164h3.64v9.845c0 .78-.073 1.49-.227 2.142a6.517 6.517 0 0 1-.677 1.757c-.304.522-.68.976-1.139 1.366-.458.39-.993.716-1.605.977a9.078 9.078 0 0 1-2.081.587 15.67 15.67 0 0 1-2.56.197c-.934 0-1.846-.064-2.63-.197-.784-.133-1.486-.326-2.102-.587a5.876 5.876 0 0 1-1.593-.977 5.099 5.099 0 0 1-1.105-1.367 6.34 6.34 0 0 1-.647-1.756 10.095 10.095 0 0 1-.21-2.142V1.164h3.64v9.66c0 .733.09 1.367.266 1.907.175.54.454.99.826 1.35.377.36.856.625 1.447.805.587.18 1.29.266 2.111.266.823 0 1.525-.09 2.111-.266.587-.18 1.07-.445 1.448-.805a3.14 3.14 0 0 0 .826-1.35c.176-.544.266-1.178.266-1.906v-9.66h-.005ZM98.595 17.666V1.168h13.895v2.69h-10.225v4.01h8.769v2.687h-8.769v4.42h10.315v2.687H98.595v.004Z" fill="#fff"/></svg>