<svg width="113" height="19" fill="none" xmlns="http://www.w3.org/2000/svg"><path d="M.146 17.665V1.167h3.67v13.812h8.949v2.686H.146ZM16.293 17.665V1.167h13.895v2.69H19.963v4.01h8.769v2.687h-8.77v4.42h10.316v2.687H16.293v.004ZM49.23 17.665l-1.782-3.414h-9.403l-1.755 3.414h-4.077l8.658-16.498h3.824l8.65 16.498h-4.12.005ZM44.057 7.298c-.218-.433-.437-.861-.65-1.286-.215-.424-.429-.852-.647-1.29-.219.438-.437.87-.651 1.303-.214.429-.433.861-.651 1.298l-2.047 4.083h6.693l-2.051-4.104.004-.004ZM69.196 9.688h3.67v7.086c-.343.116-.711.227-1.11.33-.397.107-.813.206-1.25.296a30.32 30.32 0 0 1-2.766.458c-.48.056-.955.098-1.434.128-.48.03-.95.043-1.413.043-1.52 0-2.89-.18-4.12-.54-1.224-.36-2.269-.9-3.13-1.615a7.081 7.081 0 0 1-1.986-2.69c-.463-1.075-.694-2.335-.694-3.77 0-.84.094-1.632.283-2.386a7.917 7.917 0 0 1 .839-2.087 7.266 7.266 0 0 1 1.4-1.722 8.217 8.217 0 0 1 1.953-1.302c.74-.36 1.58-.634 2.509-.827.93-.193 1.948-.287 3.061-.287.467 0 .925.013 1.366.038.446.026.874.065 1.29.116.41.052.809.112 1.185.18.377.069.737.15 1.084.24.342.09.676.188.993.291.317.107.625.219.92.343V4.95c-.41-.141-.86-.287-1.352-.441a18.788 18.788 0 0 0-1.567-.42 20.501 20.501 0 0 0-1.748-.313 14.217 14.217 0 0 0-1.888-.124c-1.143 0-2.132.124-2.959.377-.826.253-1.507.621-2.038 1.114a4.377 4.377 0 0 0-1.182 1.808c-.252.715-.38 1.538-.38 2.463 0 .621.055 1.2.17 1.726a5.33 5.33 0 0 0 .519 1.436c.23.428.522.805.877 1.135.356.33.771.604 1.255.822.48.223 1.028.386 1.644.502.613.111 1.298.171 2.047.171.403 0 .784-.013 1.143-.034a13.826 13.826 0 0 0 1.949-.274c.295-.065.586-.137.873-.219V9.69h-.013ZM90.015 1.163h3.64v9.845c0 .78-.073 1.49-.228 2.142a6.515 6.515 0 0 1-.676 1.756c-.304.523-.68.977-1.14 1.367-.457.39-.993.715-1.605.977a9.078 9.078 0 0 1-2.08.587c-.776.128-1.628.197-2.561.197-.934 0-1.846-.065-2.63-.197-.783-.133-1.485-.326-2.102-.587a5.88 5.88 0 0 1-1.593-.977 5.1 5.1 0 0 1-1.105-1.367 6.339 6.339 0 0 1-.646-1.756 10.094 10.094 0 0 1-.21-2.142V1.163h3.64v9.66c0 .733.09 1.367.265 1.907.176.54.454.99.827 1.35.376.36.856.625 1.447.805.587.18 1.289.265 2.11.265.823 0 1.525-.09 2.112-.265.587-.18 1.07-.446 1.447-.806a3.14 3.14 0 0 0 .827-1.35c.175-.543.265-1.177.265-1.905V1.162h-.004ZM98.596 17.665V1.167h13.895v2.69h-10.225v4.01h8.769v2.687h-8.769v4.42h10.315v2.687H98.596v.004Z" fill="#1B1464"/></svg>