<svg width="81" height="50" fill="none" xmlns="http://www.w3.org/2000/svg"><path d="m20.486 35.13 1.263-2.185 7.532-13.05a10.04 10.04 0 0 1 8.7-5.025h15.6a5.218 5.218 0 0 0 4.517-2.609l3.044-5.278a1.677 1.677 0 0 0-.723-2.348A45.882 45.882 0 0 0 40.255 0C23.513 0 8.86 8.924.768 22.269a5.235 5.235 0 0 0 0 5.458 46.433 46.433 0 0 0 13.625 14.339c.809.548 1.914.308 2.402-.54l3.69-6.396Z" fill="url('#paint0_linear_2218_204')"/><path d="M63.716 8.47 51.234 30.103a10.046 10.046 0 0 1-8.7 5.025h-15.6a5.218 5.218 0 0 0-4.517 2.61l-3.044 5.278a1.677 1.677 0 0 0 .723 2.347A45.882 45.882 0 0 0 40.26 50c16.802 0 31.502-8.989 39.573-22.415.951-1.58.951-3.581 0-5.167a46.473 46.473 0 0 0-13.71-14.484 1.679 1.679 0 0 0-2.403.54l-.004-.005Z" fill="url('#paint1_linear_2218_204')"/><path d="m26.228 25.177 3.049-5.286a10.04 10.04 0 0 1 8.7-5.026h16.396c1.37 0 2.638-.732 3.323-1.919l3.447-5.972a1.679 1.679 0 0 0-.732-2.348 45.502 45.502 0 0 0-8.564-3.157C45.664-.13 39.185 2.719 35.995 8.25l-9.767 16.922v.004Z" fill="url('#paint2_linear_2218_204')"/><path d="m54.283 24.818-3.049 5.287a10.04 10.04 0 0 1-8.7 5.025H26.137c-1.37 0-2.638.733-3.323 1.92l-3.447 5.972a1.679 1.679 0 0 0 .733 2.347 45.498 45.498 0 0 0 8.563 3.158c6.183 1.598 12.662-1.251 15.852-6.782l9.767-16.922v-.005Z" fill="url('#paint3_linear_2218_204')"/><defs><linearGradient id="paint0_linear_2218_204" x1="30.681" y1="42.361" x2="30.681" y2="0" gradientUnits="userSpaceOnUse"><stop stop-color="#47DAFF"/><stop offset=".21" stop-color="#43D2FE"/><stop offset=".52" stop-color="#3ABDFE"/><stop offset=".9" stop-color="#2A9CFD"/><stop offset="1" stop-color="#2692FD"/></linearGradient><linearGradient id="paint1_linear_2218_204" x1="49.843" y1="49.995" x2="49.843" y2="7.634" gradientUnits="userSpaceOnUse"><stop stop-color="#FF2623"/><stop offset=".12" stop-color="#FF312D"/><stop offset=".47" stop-color="#FF4C47"/><stop offset=".77" stop-color="#FF5D56"/><stop offset="1" stop-color="#FF635C"/></linearGradient><linearGradient id="paint2_linear_2218_204" x1="34.946" y1="10.067" x2="53.26" y2="20.632" gradientUnits="userSpaceOnUse"><stop stop-color="#00F"/><stop offset=".66" stop-color="#1861FB"/><stop offset="1" stop-color="#3C77FC"/></linearGradient><linearGradient id="paint3_linear_2218_204" x1="27.251" y1="29.355" x2="45.566" y2="39.92" gradientUnits="userSpaceOnUse"><stop stop-color="#C03"/><stop offset="1" stop-color="#87005A"/></linearGradient></defs></svg>