<svg width="19" height="18" fill="none" xmlns="http://www.w3.org/2000/svg"><g clip-path="url('#clip0_2113_592')" fill="#fff"><path d="M9.334 1.62c2.404 0 2.689.011 3.635.053.879.04 1.353.187 1.67.31.418.162.72.358 1.033.671.317.317.51.616.672 1.034.123.316.27.794.309 1.67.042.949.053 1.234.053 3.635 0 2.405-.01 2.69-.053 3.635-.039.879-.186 1.354-.31 1.67-.161.418-.358.72-.67 1.034-.317.316-.616.51-1.034.671-.317.123-.795.27-1.67.31-.95.042-1.234.052-3.635.052-2.405 0-2.69-.01-3.636-.052-.879-.04-1.353-.187-1.67-.31a2.783 2.783 0 0 1-1.033-.671 2.768 2.768 0 0 1-.672-1.034c-.123-.316-.27-.794-.309-1.67-.042-.95-.053-1.234-.053-3.635 0-2.405.01-2.69.053-3.635.039-.88.186-1.354.31-1.67.161-.418.358-.72.67-1.034.317-.316.616-.51 1.034-.671.317-.123.795-.27 1.67-.31.946-.042 1.23-.052 3.636-.052Zm0-1.62c-2.444 0-2.75.01-3.71.053C4.669.095 4.012.25 3.442.47a4.393 4.393 0 0 0-1.596 1.04 4.41 4.41 0 0 0-1.04 1.593C.583 3.677.428 4.331.386 5.287.344 6.252.333 6.557.333 9s.011 2.75.053 3.709c.042.956.197 1.614.419 2.183a4.393 4.393 0 0 0 1.04 1.596 4.4 4.4 0 0 0 1.593 1.037c.573.222 1.227.377 2.183.419.96.042 1.266.053 3.709.053s2.75-.011 3.709-.053c.956-.042 1.614-.197 2.183-.419a4.4 4.4 0 0 0 1.593-1.037 4.4 4.4 0 0 0 1.037-1.592c.221-.573.376-1.227.418-2.184.042-.96.053-1.265.053-3.708 0-2.444-.01-2.75-.053-3.71-.042-.956-.197-1.613-.418-2.183a4.216 4.216 0 0 0-1.03-1.6A4.4 4.4 0 0 0 15.229.476c-.573-.222-1.227-.377-2.183-.419C12.083.011 11.776 0 9.334 0Z"/><path d="M9.334 4.377a4.624 4.624 0 0 0 0 9.246 4.624 4.624 0 0 0 0-9.246Zm0 7.622a3 3 0 1 1 0-5.999 3 3 0 0 1 0 5.999ZM15.219 4.195a1.08 1.08 0 1 1-2.16-.001 1.08 1.08 0 0 1 2.16 0Z"/></g><defs><clipPath id="clip0_2113_592"><path fill="#fff" transform="translate(.333)" d="M0 0h18v18H0z"/></clipPath></defs></svg>