<svg width="113" height="19" viewBox="0 0 113 19" fill="none" xmlns="http://www.w3.org/2000/svg">
<path d="M0.14624 17.6652V1.16705H3.81585V14.9791H12.765V17.6652H0.14624Z" fill="#1B1464"></path>
<path d="M16.293 17.6652V1.16705H30.1878V3.85747H19.9626V7.8674H28.7319V10.5536H19.9626V14.9748H30.2777V17.6609H16.293V17.6652Z" fill="#1B1464"></path>
<path d="M49.2297 17.6652L47.4484 14.2508H38.0453L36.2898 17.6652H32.2134L40.8714 1.16705H44.6952L53.3446 17.6652H49.2254H49.2297ZM44.0571 7.29763C43.8388 6.86494 43.6204 6.43652 43.4063 6.0124C43.1922 5.58827 42.9781 5.15985 42.7597 4.72287C42.5414 5.15985 42.323 5.59254 42.1089 6.02523C41.8948 6.45365 41.6764 6.88636 41.458 7.32334L39.4113 11.4061H46.1039L44.0529 7.30189L44.0571 7.29763Z" fill="#1B1464"></path>
<path d="M69.1962 9.68818H72.8658V16.7741C72.5233 16.8898 72.155 17.0012 71.7568 17.104C71.3586 17.2111 70.9432 17.3096 70.5065 17.3996C70.0697 17.4939 69.6201 17.5796 69.1534 17.6567C68.6867 17.7338 68.2157 17.8023 67.7404 17.858C67.2608 17.9137 66.7855 17.9565 66.3059 17.9865C65.8264 18.0165 65.3553 18.0294 64.8929 18.0294C63.3728 18.0294 62.0026 17.8494 60.7737 17.4896C59.5491 17.1297 58.5043 16.5899 57.6436 15.8745C56.783 15.159 56.1193 14.2594 55.6568 13.184C55.1944 12.1087 54.9631 10.8492 54.9631 9.41402C54.9631 8.57433 55.0573 7.78177 55.2457 7.02776C55.4341 6.27376 55.7125 5.57973 56.085 4.9414C56.4575 4.30306 56.9242 3.72898 57.4852 3.21917C58.0461 2.70936 58.697 2.27667 59.4377 1.91681C60.1785 1.55694 61.0178 1.28273 61.9469 1.08995C62.8761 0.897161 63.8952 0.802917 65.0085 0.802917C65.4752 0.802917 65.9334 0.815781 66.3744 0.841486C66.8197 0.867191 67.2479 0.90573 67.6633 0.95714C68.0744 1.00855 68.4726 1.06855 68.8494 1.13709C69.2262 1.20564 69.5859 1.28703 69.9327 1.377C70.2753 1.46697 70.6092 1.5655 70.9261 1.66832C71.243 1.77542 71.5513 1.8868 71.8467 2.01104V4.94995C71.4357 4.80857 70.986 4.66292 70.4936 4.50869C70.0055 4.35447 69.4831 4.21307 68.9265 4.08883C68.3698 3.96459 67.7875 3.8575 67.1794 3.7761C66.5714 3.6947 65.942 3.65187 65.2911 3.65187C64.1478 3.65187 63.1587 3.77611 62.3323 4.02887C61.5059 4.28164 60.8251 4.65006 60.2941 5.14274C59.7589 5.63113 59.3649 6.2352 59.1123 6.95065C58.8597 7.6661 58.7312 8.48865 58.7312 9.41402C58.7312 10.0352 58.7869 10.6136 58.9025 11.1405C59.0138 11.6675 59.1894 12.1473 59.4206 12.5757C59.6518 13.0041 59.943 13.3811 60.2984 13.711C60.6538 14.0409 61.0691 14.315 61.553 14.5335C62.0326 14.7563 62.5807 14.9191 63.1973 15.0348C63.8096 15.1462 64.4947 15.2061 65.244 15.2061C65.6465 15.2061 66.0276 15.1933 66.3873 15.1719C66.747 15.1462 67.0852 15.1119 67.4064 15.0648C67.7275 15.0177 68.0401 14.962 68.3356 14.8977C68.631 14.8334 68.9222 14.7606 69.2091 14.6792V9.68818H69.1962Z" fill="#1B1464"></path>
<path d="M90.0148 1.16278H93.6544V11.0077C93.6544 11.7874 93.5816 12.4986 93.4275 13.1497C93.2733 13.8009 93.0507 14.3836 92.7509 14.9062C92.4469 15.4289 92.0701 15.883 91.6119 16.2729C91.1538 16.6627 90.6185 16.9883 90.0062 17.2497C89.3939 17.511 88.7002 17.7081 87.9252 17.8366C87.1502 17.9651 86.2981 18.0337 85.3646 18.0337C84.4312 18.0337 83.5191 17.9694 82.7355 17.8366C81.9519 17.7038 81.2497 17.511 80.6331 17.2497C80.0165 16.9883 79.4855 16.6627 79.0402 16.2729C78.5949 15.883 78.2267 15.4289 77.9355 14.9062C77.6443 14.3836 77.4302 13.8009 77.2889 13.1497C77.1476 12.4986 77.0791 11.7874 77.0791 11.0077V1.16278H80.7187V10.8235C80.7187 11.5561 80.8086 12.1901 80.9842 12.7299C81.1598 13.2697 81.4381 13.7195 81.8106 14.0794C82.1874 14.4393 82.667 14.7049 83.2579 14.8848C83.8445 15.0647 84.5468 15.1504 85.3689 15.1504C86.191 15.1504 86.8933 15.0605 87.4799 14.8848C88.0665 14.7049 88.5504 14.4393 88.9272 14.0794C89.304 13.7238 89.578 13.274 89.7536 12.7299C89.9291 12.1858 90.0191 11.5518 90.0191 10.8235V1.16278H90.0148Z" fill="#1B1464"></path>
<path d="M98.5959 17.6652V1.16705H112.491V3.85747H102.266V7.8674H111.035V10.5536H102.266V14.9748H112.581V17.6609H98.5959V17.6652Z" fill="#1B1464"></path>
</svg>
