<svg width="113" height="19" viewBox="0 0 113 19" fill="none" xmlns="http://www.w3.org/2000/svg">
<path d="M0.145508 17.6661V1.16797H3.81511V14.98H12.7643V17.6661H0.145508Z" fill="white"></path>
<path d="M16.2925 17.6661V1.16797H30.1873V3.85838H19.9621V7.86832H28.7315V10.5545H19.9621V14.9757H30.2772V17.6618H16.2925V17.6661Z" fill="white"></path>
<path d="M49.2292 17.6661L47.4479 14.2517H38.0449L36.2893 17.6661H32.2129L40.8709 1.16797H44.6947L53.3441 17.6661H49.2249H49.2292ZM44.0567 7.29855C43.8383 6.86585 43.6199 6.43744 43.4058 6.01331C43.1917 5.58918 42.9776 5.16077 42.7592 4.72379C42.5409 5.16077 42.3225 5.59345 42.1084 6.02615C41.8943 6.45456 41.6759 6.88727 41.4575 7.32425L39.4108 11.407H46.1034L44.0524 7.30281L44.0567 7.29855Z" fill="white"></path>
<path d="M69.1955 9.68898H72.8651V16.7749C72.5225 16.8906 72.1543 17.002 71.7561 17.1048C71.3578 17.2119 70.9425 17.3104 70.5058 17.4004C70.069 17.4946 69.6194 17.5803 69.1527 17.6575C68.6859 17.7346 68.2149 17.8031 67.7396 17.8588C67.2601 17.9145 66.7848 17.9573 66.3052 17.9873C65.8256 18.0173 65.3546 18.0302 64.8922 18.0302C63.3721 18.0302 62.0019 17.8502 60.773 17.4904C59.5483 17.1305 58.5036 16.5907 57.6429 15.8753C56.7822 15.1598 56.1185 14.2602 55.6561 13.1848C55.1936 12.1095 54.9624 10.85 54.9624 9.41481C54.9624 8.57513 55.0566 7.78256 55.245 7.02855C55.4334 6.27455 55.7117 5.58052 56.0843 4.94219C56.4568 4.30385 56.9235 3.72977 57.4844 3.21996C58.0454 2.71015 58.6962 2.27746 59.437 1.9176C60.1778 1.55773 61.017 1.28353 61.9462 1.09074C62.8754 0.897954 63.8945 0.803711 65.0078 0.803711C65.4745 0.803711 65.9327 0.816575 66.3737 0.84228C66.819 0.867984 67.2472 0.906524 67.6626 0.957933C68.0736 1.00934 68.4718 1.06934 68.8487 1.13789C69.2255 1.20643 69.5851 1.28783 69.932 1.37779C70.2745 1.46776 70.6085 1.56629 70.9254 1.66911C71.2422 1.77622 71.5505 1.8876 71.846 2.01184V4.95074C71.4349 4.80936 70.9853 4.66372 70.4929 4.50949C70.0048 4.35526 69.4824 4.21387 68.9257 4.08963C68.3691 3.96539 67.7867 3.85829 67.1787 3.77689C66.5707 3.6955 65.9412 3.65266 65.2904 3.65266C64.1471 3.65266 63.158 3.77691 62.3316 4.02967C61.5052 4.28243 60.8244 4.65086 60.2934 5.14353C59.7582 5.63192 59.3642 6.23599 59.1116 6.95144C58.8589 7.66689 58.7305 8.48944 58.7305 9.41481C58.7305 10.036 58.7862 10.6144 58.9018 11.1413C59.0131 11.6682 59.1886 12.1481 59.4199 12.5765C59.6511 13.0049 59.9423 13.3819 60.2977 13.7118C60.6531 14.0417 61.0684 14.3158 61.5523 14.5343C62.0318 14.7571 62.5799 14.9199 63.1965 15.0356C63.8088 15.147 64.494 15.2069 65.2433 15.2069C65.6458 15.2069 66.0269 15.1941 66.3866 15.1727C66.7462 15.147 67.0845 15.1127 67.4057 15.0656C67.7268 15.0184 68.0394 14.9627 68.3348 14.8985C68.6303 14.8342 68.9214 14.7614 69.2083 14.68V9.68898H69.1955Z" fill="white"></path>
<path d="M90.0143 1.16406H93.6539V11.009C93.6539 11.7887 93.5811 12.4998 93.427 13.151C93.2728 13.8022 93.0502 14.3848 92.7504 14.9075C92.4464 15.4302 92.0696 15.8843 91.6114 16.2741C91.1533 16.664 90.618 16.9896 90.0057 17.2509C89.3934 17.5123 88.6997 17.7093 87.9247 17.8379C87.1497 17.9664 86.2976 18.0349 85.3641 18.0349C84.4307 18.0349 83.5186 17.9707 82.735 17.8379C81.9514 17.7051 81.2492 17.5123 80.6326 17.2509C80.016 16.9896 79.4851 16.664 79.0397 16.2741C78.5944 15.8843 78.2262 15.4302 77.935 14.9075C77.6438 14.3848 77.4297 13.8022 77.2884 13.151C77.1471 12.4998 77.0786 11.7887 77.0786 11.009V1.16406H80.7182V10.8248C80.7182 11.5573 80.8082 12.1914 80.9837 12.7312C81.1593 13.271 81.4376 13.7208 81.8102 14.0807C82.187 14.4405 82.6665 14.7062 83.2574 14.8861C83.844 15.066 84.5463 15.1517 85.3684 15.1517C86.1906 15.1517 86.8928 15.0617 87.4794 14.8861C88.066 14.7062 88.5499 14.4405 88.9267 14.0807C89.3035 13.7251 89.5775 13.2753 89.7531 12.7312C89.9287 12.1871 90.0186 11.5531 90.0186 10.8248V1.16406H90.0143Z" fill="white"></path>
<path d="M98.5952 17.6661V1.16797H112.49V3.85838H102.265V7.86832H111.034V10.5545H102.265V14.9757H112.58V17.6618H98.5952V17.6661Z" fill="white"></path>
</svg>
