<svg width="25" height="24" viewBox="0 0 25 24" fill="none" xmlns="http://www.w3.org/2000/svg">
<path d="M2.3335 12H5.3335" stroke="#767676" stroke-width="2" stroke-linecap="round" stroke-linejoin="round"></path>
<path d="M19.3335 12H22.3335" stroke="#767676" stroke-width="2" stroke-linecap="round" stroke-linejoin="round"></path>
<path d="M12.3335 2V5" stroke="#767676" stroke-width="2" stroke-linecap="round" stroke-linejoin="round"></path>
<path d="M12.3335 19V22" stroke="#767676" stroke-width="2" stroke-linecap="round" stroke-linejoin="round"></path>
<path d="M12.3335 19C16.1995 19 19.3335 15.866 19.3335 12C19.3335 8.13401 16.1995 5 12.3335 5C8.4675 5 5.3335 8.13401 5.3335 12C5.3335 15.866 8.4675 19 12.3335 19Z" stroke="#767676" stroke-width="2" stroke-linecap="round" stroke-linejoin="round"></path>
<path d="M12.3335 15C13.9904 15 15.3335 13.6569 15.3335 12C15.3335 10.3431 13.9904 9 12.3335 9C10.6766 9 9.3335 10.3431 9.3335 12C9.3335 13.6569 10.6766 15 12.3335 15Z" stroke="#767676" stroke-width="2" stroke-linecap="round" stroke-linejoin="round"></path>
</svg>
