<svg width="81" height="50" viewBox="0 0 81 50" fill="none" xmlns="http://www.w3.org/2000/svg">
<path d="M20.4858 35.1298L21.7489 32.9449L29.2808 19.8955C31.0749 16.7852 34.3891 14.8702 37.9817 14.8702H53.5807C55.4433 14.8702 57.1647 13.8763 58.0981 12.2612L61.1425 6.98313C61.6307 6.13916 61.2967 5.06384 60.4189 4.63542C54.33 1.66653 47.4875 0 40.2554 0C23.5131 0 8.86035 8.92383 0.767533 22.2689C-0.255845 23.9525 -0.255845 26.0432 0.767533 27.7268C4.22732 33.4333 8.88605 38.3301 14.3926 42.0658C15.2019 42.6142 16.3066 42.3743 16.7947 41.526L20.4858 35.1298Z" fill="url('#paint0_linear_2218_176')"></path>
<path d="M63.7163 8.4697L51.2345 30.1045C49.4403 33.2148 46.1219 35.1298 42.5336 35.1298H26.9346C25.072 35.1298 23.3506 36.1237 22.4172 37.7388L19.3727 43.0169C18.8846 43.8608 19.2186 44.9361 20.0964 45.3646C26.1853 48.3335 33.0278 50 40.2599 50C57.0622 50 71.762 41.0119 79.8334 27.5855C80.784 26.0046 80.784 24.0039 79.8334 22.4188C76.365 16.6524 71.6763 11.7042 66.1227 7.93418C65.3134 7.38582 64.2087 7.62572 63.7205 8.47397L63.7163 8.4697Z" fill="url('#paint1_linear_2218_176')"></path>
<path d="M26.228 25.1778L29.2767 19.8912C31.0709 16.7809 34.3851 14.8659 37.9776 14.8659H54.3731C55.7433 14.8659 57.0107 14.1333 57.6958 12.9466L61.1428 6.97455C61.6309 6.13058 61.2884 5.05099 60.4106 4.62686C57.6958 3.30307 54.8312 2.24059 51.8467 1.46945C45.6636 -0.128528 39.1851 2.72042 35.9951 8.25122L26.228 25.1735V25.1778Z" fill="url('#paint2_linear_2218_176')"></path>
<path d="M54.2831 24.8179L51.2343 30.1046C49.4402 33.2148 46.126 35.1298 42.5335 35.1298H26.138C24.7678 35.1298 23.5004 35.8624 22.8152 37.0491L19.3683 43.0212C18.8802 43.8652 19.2227 44.9447 20.1005 45.3689C22.8152 46.6927 25.6799 47.7551 28.6643 48.5263C34.8474 50.1242 41.326 47.2753 44.516 41.7445L54.2831 24.8222V24.8179Z" fill="url('#paint3_linear_2218_176')"></path>
<path d="M54.2831 24.8179L51.2343 30.1046C49.4402 33.2148 46.126 35.1298 42.5335 35.1298H26.138C24.7678 35.1298 23.5004 35.8624 22.8152 37.0491L19.3683 43.0212C18.8802 43.8652 19.2227 44.9447 20.1005 45.3689C22.8152 46.6927 25.6799 47.7551 28.6643 48.5263C34.8474 50.1242 41.326 47.2753 44.516 41.7445L54.2831 24.8222V24.8179Z" fill="black" fill-opacity="0.2"></path>
<defs>
<linearGradient id="paint0_linear_2218_176" x1="30.681" y1="42.3614" x2="30.681" y2="0" gradientUnits="userSpaceOnUse">
<stop stop-color="#47DAFF"></stop>
<stop offset="0.21" stop-color="#43D2FE"></stop>
<stop offset="0.52" stop-color="#3ABDFE"></stop>
<stop offset="0.9" stop-color="#2A9CFD"></stop>
<stop offset="1" stop-color="#2692FD"></stop>
</linearGradient>
<linearGradient id="paint1_linear_2218_176" x1="49.8428" y1="49.9957" x2="49.8428" y2="7.63429" gradientUnits="userSpaceOnUse">
<stop stop-color="#FF2623"></stop>
<stop offset="0.12" stop-color="#FF312D"></stop>
<stop offset="0.47" stop-color="#FF4C47"></stop>
<stop offset="0.77" stop-color="#FF5D56"></stop>
<stop offset="1" stop-color="#FF635C"></stop>
</linearGradient>
<linearGradient id="paint2_linear_2218_176" x1="34.946" y1="10.0677" x2="53.2602" y2="20.6327" gradientUnits="userSpaceOnUse">
<stop stop-color="#0000FF"></stop>
<stop offset="0.66" stop-color="#1861FB"></stop>
<stop offset="1" stop-color="#3C77FC"></stop>
</linearGradient>
<linearGradient id="paint3_linear_2218_176" x1="27.2513" y1="29.3548" x2="45.5655" y2="39.9199" gradientUnits="userSpaceOnUse">
<stop stop-color="#CC0033"></stop>
<stop offset="1" stop-color="#87005A"></stop>
</linearGradient>
</defs>
</svg>
